<?xml version="1.0" encoding="UTF-8" standalone="no"?>
<svg
   xmlns:dc="http://purl.org/dc/elements/1.1/"
   xmlns:cc="http://creativecommons.org/ns#"
   xmlns:rdf="http://www.w3.org/1999/02/22-rdf-syntax-ns#"
   xmlns:svg="http://www.w3.org/2000/svg"
   xmlns="http://www.w3.org/2000/svg"
   xmlns:sodipodi="http://sodipodi.sourceforge.net/DTD/sodipodi-0.dtd"
   xmlns:inkscape="http://www.inkscape.org/namespaces/inkscape"
   width="1250"
   height="500"
   viewBox="0 0 1250 500"
   version="1.1"
   id="svg_null"
   sodipodi:docname="logo-circle1.svg"
   inkscape:version="1.0.1 (3bc2e813f5, 2020-09-07)">
  <metadata
     id="metadata21">
    <rdf:RDF>
      <cc:Work
         rdf:about="">
        <dc:format>image/svg+xml</dc:format>
        <dc:type
           rdf:resource="http://purl.org/dc/dcmitype/StillImage" />
        <dc:title></dc:title>
      </cc:Work>
    </rdf:RDF>
  </metadata>
  <defs
     id="defs19" />
  <sodipodi:namedview
     pagecolor="#ffffff"
     bordercolor="#666666"
     borderopacity="1"
     objecttolerance="10"
     gridtolerance="10"
     guidetolerance="10"
     inkscape:pageopacity="0"
     inkscape:pageshadow="2"
     inkscape:window-width="1920"
     inkscape:window-height="1017"
     id="namedview17"
     showgrid="false"
     inkscape:zoom="0.8336"
     inkscape:cx="625"
     inkscape:cy="250"
     inkscape:window-x="-8"
     inkscape:window-y="-8"
     inkscape:window-maximized="1"
     inkscape:current-layer="root" />
  <g
     id="root"
     stroke="none"
     stroke-width="1"
     fill="none"
     fill-rule="evenodd">
    <!--BG Color: #393e46-->
    <path
       d="M249.5 390c77.596 0 140.5 -62.904 140.5 -140.5c0 -13.19 -1.818 -26.141 -5.365 -38.586l-3.847 1.096c3.445 12.09 5.212 24.671 5.212 37.49c0 75.387 -61.113 136.5 -136.5 136.5l0 4zm125.732 -203.272l-3.578 1.79c-22.96 -45.902 -69.907 -75.518 -122.154 -75.518c-34.585 0 -67.148 12.91 -92.143 35.792l-2.701 -2.95c25.725 -23.55 59.25 -36.842 94.844 -36.842c53.777 0 102.1 30.484 125.732 77.728zm-238.03 -21.678l3.196 2.407c-17.682 23.476 -27.398 52.02 -27.398 82.043c0 57.005 35.268 107.397 87.608 127.483l-1.433 3.735c-53.874 -20.675 -90.175 -72.543 -90.175 -131.218c0 -30.898 10.003 -60.286 28.202 -84.45zm86.856 222.652c8.33 1.524 16.829 2.297 25.425 2.298l0 -4c-8.354 -0.001 -16.612 -0.752 -24.706 -2.233l-0.72 3.935z"
       id="shape.primary"
       fill="#eeeeee"
       fill-rule="nonzero" />
    <rect
       id="icon.primary"
       x="200"
       y="163"
       width="100"
       height="100"
       display="none"
       fill="#eeeeee" />
  </g>
</svg>
