<?xml version="1.0" encoding="utf-8"?>
<!-- Generator: Adobe Illustrator 12.0.0, SVG Export Plug-In . SVG Version: 6.00 Build 51448)  -->
<!DOCTYPE svg PUBLIC "-//W3C//DTD SVG 1.1//EN" "http://www.w3.org/Graphics/SVG/1.1/DTD/svg11.dtd" [
	<!ENTITY ns_svg "http://www.w3.org/2000/svg">
	<!ENTITY ns_xlink "http://www.w3.org/1999/xlink">
]>
<svg width="1250" height="500" viewBox="0 0 1250 500" version="1.1" id="svg_null">
  <g id="root" stroke="none" stroke-width="1" fill="none" fill-rule="evenodd">
    <!--BG Color: #393e46-->
    <path d="M249.5 390c77.596 0 140.5 -62.904 140.5 -140.5c0 -13.19 -1.818 -26.141 -5.365 -38.586l-3.847 1.096c3.445 12.09 5.212 24.671 5.212 37.49c0 75.387 -61.113 136.5 -136.5 136.5l0 4zm125.732 -203.272l-3.578 1.79c-22.96 -45.902 -69.907 -75.518 -122.154 -75.518c-34.585 0 -67.148 12.91 -92.143 35.792l-2.701 -2.95c25.725 -23.55 59.25 -36.842 94.844 -36.842c53.777 0 102.1 30.484 125.732 77.728zm-238.03 -21.678l3.196 2.407c-17.682 23.476 -27.398 52.02 -27.398 82.043c0 57.005 35.268 107.397 87.608 127.483l-1.433 3.735c-53.874 -20.675 -90.175 -72.543 -90.175 -131.218c0 -30.898 10.003 -60.286 28.202 -84.45zm86.856 222.652c8.33 1.524 16.829 2.297 25.425 2.298l0 -4c-8.354 -0.001 -16.612 -0.752 -24.706 -2.233l-0.72 3.935z" id="shape.primary" fill="#eeeeee" fill-rule="nonzero"></path>
    <path d="M249.5 373c-68.207 0 -123.5 -55.293 -123.5 -123.5c0 -68.207 55.293 -123.5 123.5 -123.5c68.207 0 123.5 55.293 123.5 123.5c0 68.207 -55.293 123.5 -123.5 123.5zm0 -4c65.998 0 119.5 -53.502 119.5 -119.5c0 -65.998 -53.502 -119.5 -119.5 -119.5c-65.998 0 -119.5 53.502 -119.5 119.5c0 65.998 53.502 119.5 119.5 119.5z" id="shape.primary" fill="#eeeeee" fill-rule="nonzero"></path>
    <g id="Group" transform="translate(400.000000, 280.000)">
      <rect id="Rectangle-23" x="0" y="0" width="190" height="33"></rect>
      <text id="headerText.primary" font-family="Anonymous Pro" font-size="192" font-weight="700" line-spacing="32" letter-spacing="2.667" fill="#eeeeee" data-text-alignment="C" font-style="normal">
        <tspan x="35.1796875" y="26.5">Aknell</tspan>
      </text>
    </g>
    <rect id="icon.primary" x="200" y="163" width="100" height="100" display="none" fill="#eeeeee"></rect>
    <svg xmlns="http://www.w3.org/2000/svg" xmlns:xlink="http://www.w3.org/1999/xlink" viewBox="0 0 32 32" version="1.1" fill="#eeeeee" id="svg_icon.primary" x="175" y="170" width="150" height="150">
      <g id="surface1" fill="#eeeeee">
        <path style=" " d="M 16 3.03125 L 15.28125 3.75 L 13.09375 5.96875 L 10.90625 6.65625 L 10 6.9375 L 10.21875 7.84375 L 11.40625 12.65625 L 9.6875 11.46875 L 9 11 L 6.78125 13.21875 L 3.84375 14.53125 L 2.96875 14.9375 L 3.3125 15.8125 L 4.4375 18.65625 L 4.125 21.03125 L 4 22.03125 L 11 22.90625 L 11 25 L 15 25 L 15 29 L 17 29 L 17 25 L 21 25 L 21 22.90625 L 28 22.03125 L 27.875 21.03125 L 27.5625 18.65625 L 28.6875 15.8125 L 29.03125 14.9375 L 28.15625 14.53125 L 25.21875 13.21875 L 23 11 L 22.3125 11.46875 L 20.59375 12.65625 L 21.78125 7.84375 L 22 6.9375 L 21.09375 6.65625 L 18.90625 5.96875 L 16.71875 3.75 Z M 16 5.875 L 17.875 7.75 L 18.09375 7.8125 L 19.625 8.28125 L 18.03125 14.75 L 17.40625 17.34375 L 19.5625 15.8125 L 22.75 13.59375 L 23.90625 14.78125 L 24.0625 14.90625 L 24.21875 15 L 26.46875 16 L 25.625 18.15625 L 25.53125 18.40625 L 25.5625 18.65625 L 25.75 20.28125 L 19.875 21 L 19 21.125 L 19 23 L 13 23 L 13 21.125 L 12.125 21 L 6.25 20.28125 L 6.4375 18.65625 L 6.46875 18.40625 L 6.375 18.15625 L 5.53125 16 L 7.78125 15 L 7.9375 14.90625 L 8.09375 14.78125 L 9.25 13.59375 L 12.4375 15.8125 L 14.59375 17.34375 L 13.96875 14.75 L 12.375 8.28125 L 13.90625 7.8125 L 14.125 7.75 Z " fill="#eeeeee">
        </path>
      </g>
    </svg>
  </g>
</svg>
